<svg xmlns="http://www.w3.org/2000/svg" version="1.1" xmlns:xlink="http://www.w3.org/1999/xlink" xmlns:svgjs="http://svgjs.dev/svgjs" width="1000" height="1000" viewBox="0 0 1000 1000"><rect width="1000" height="1000" fill="#000000"></rect><g transform="matrix(0.7,0,0,0.7,150.00001640624987,106.25)"><svg viewBox="0 0 320 360" data-background-color="#000000" preserveAspectRatio="xMidYMid meet" height="1125" width="1000" xmlns="http://www.w3.org/2000/svg" xmlns:xlink="http://www.w3.org/1999/xlink"><g id="tight-bounds" transform="matrix(1,0,0,1,-0.000002499999936844688,0)"><svg viewBox="0 0 320 360" height="360" width="320"><rect width="320.00001" height="360" fill="url(#6a272603-af63-49c0-8a5c-e922e9c8afba)" mask="url(#07f5646b-3422-4e97-a4fc-1f69e56628a2)" data-fill-palette-color="tertiary"></rect><g><svg></svg></g><g><svg viewBox="0 0 320 360" height="360" width="320"><g><path transform="translate(-19.44751,3.1739) scale(3.53591,3.53591)" d="M67.6 10.7c0.2 0 1.8 0.8 2.7 1.1-0.3 0.1-1-0.2-1.8-0.5 0.2 0 0.6 0.1 1 0.3-0.2-0.2-1.7-0.7-1.9-0.9M52.7 7.6c0.3-0.1 3.8 0.4 5.4 0.5 0.1-0.1-0.2-0.1-0.6-0.2 0.5-0.1 1.5 0.2 2.2 0.3-2.1 0.1-4.4-0.5-6.4-0.3-0.7 0-0.2-0.2-0.6-0.3M49.8 7.6c1.8 0 3.2 0 0.6 0.2-0.3-0.1-0.7-0.1-0.6-0.2M78.1 15.9c0.2 0 1 0.9 1.4 1.2-0.1 0.1-0.9-0.7-1.3-1 0.1 0.1 0 0-0.1-0.2M76.1 14.6c-0.8-0.7-1.1-0.7-1.2-1.1 0.7 0.4 1.2 0.8 1.2 1.1M63.2 8.3c0.1-0.1 0.3 0.1 0.8 0.2-0.6-0.1-0.5 0-0.3 0.2-0.7-0.1-0.9-0.2-0.7-0.4 0.4 0.2 0.5 0.1 0.2 0M34.8 9.5c0-0.1 0.4-0.3 0.7-0.4-0.3 0.2-0.2 0.3 0.3 0.1 0 0.1-0.6 0.3-1 0.5 0.2-0.1 0.4-0.4 0-0.2M65.2 7.3c-0.3 0.1-1.4-0.5-2.5-0.7-0.6-0.2 2.4 0.5 2.5 0.7M6.2 56.7c0.6 2.5 0.2 2.4 0 0M6.3 41.7c0.1-0.4 0.2-1.5 0.3-1.4-0.3 2.4-0.8 3.5-0.9 5.3 0.3-1.6-0.1 0.9-0.2 1.5 0.1 0.8 0.1-0.5 0.3-0.3 0.2 0.3-0.4 4.5-0.2 2.2-0.2 2.1 0 4.4 0.4 5-0.5 3.2 2 10.4 2.5 11.9 0.1 0.1 0-0.5 0.2-0.1 0.2 1.3 1.1 2.2 1.4 3.6 0.3 0.4 1.5 2.6 1.7 3.1 0.4 0.8 0.6 0.7 1 1.5 1.2 2.3 3.1 4.5 4.9 6.6 5.8 6.8 14.7 12.4 24.6 14.4 9.9 2.1 20.3 0.6 28.4-3.3 0.5-0.3 0.4-0.4 1-0.6 2.8-0.9 6.2-3.8 8.1-4.9 0.9-1 3.3-2.7 3.6-3.7 1.7-1.4 3.4-3.7 4.3-5.2 0.5-0.8 0.9-0.8 1.1-1.3-0.1 0 1.6-2.1 2.1-3.3-0.2 0-0.5 0.6-0.5 0 3.6-6.9 5.6-16.2 4.5-22.6 0.2 7.9-1.8 16.7-5.6 22.3-1.7 3.6-5.2 7.5-8.4 10.3-0.5 0.5-1 1.1-1.6 1.5-1.9 1.6-4 2.9-6.2 4.1-5.2 2.9-11 5.4-17.8 5.5 11.7-1 22.2-6.9 28-14.1-4.4 4.3-6.3 6-11.2 8.5-0.4 0.7-3.7 2.1-5.9 2.7 1.3-0.6 4-1.6 4.9-2.4-7.3 3.5-15.4 5.5-23 4.4 2.9 0 7 0.1 10.9-0.6 0.6-0.2 0.9-0.4 1.6-0.5 7.6-1.7 14.9-5.4 20.1-10.6-3 2.7-7.5 5.9-10.4 6.9 2.7-1.5 7.6-4.4 9.2-6.6-3.2 3.2-9.2 6.4-13 7.8-0.6 0.1 0.4-0.4-0.6 0-1.2 0.3-0.7 0.3-1 0.5-4.6 1.3-9.9 2.4-14.3 2-0.8-0.1-1.1-0.3-1.8-0.3-0.8-0.1-1.5-0.1-2.4-0.1-3.5-0.4-7.3-1.8-10.1-3-1.5-0.7-3-1.2-4.5-2.1-1.2-0.7-2.2-1.5-3.2-2.3-3.8-2.8-7-5.6-10-9.6-5.4-7.5-8.2-16.9-7.8-26.2 0.4-9.3 4.1-18.4 10-25.1-0.3 0.3 0.4-0.7 1-1.3 0 0.2-0.1 0.5 0.6-0.2 0.6-0.7-0.2-0.2 0.1-0.6 6.2-6.8 17-12.3 28.1-12.5 0.4-0.3 1.1-0.7 1.9-0.5 0 0.1-0.5 0.1-0.5 0.1 1.1-0.1 2.1-0.1 2.6 0.1 0.1-0.1-0.4-0.2 0-0.2 0.7 0.2 0.9 0 1.3 0.2-0.3 0-0.6 0-0.8 0.1 2.5 0 4.1 0.6 6.6 0.8-1.3-0.3-1.6-0.3-2.6-0.6 1.1 0.2 1.6 0.4 2.1 0.3-0.2 0-0.1-0.3 0.1-0.2 2 0.5 2.2 0.7 4.3 1.4 0.2-0.2-0.9-0.3-1.2-0.6 2 0.7 3.8 1.2 5 2-0.4-0.3-1.6-0.7-2.5-1.1-0.1 0.1 0.3 0.2 0.4 0.4-1-0.5-2.4-1-3.8-1.2 1.2 0.3 2 0.7 2.5 0.9-1.1-0.2-2.5-0.9-4.1-1.2 2.6 0.8 7.5 2.6 10.5 4.2-1.1-0.7-2.4-1.2-3.1-1.6 0.6 0.1 1.3 0.5 1.3 0.3 0.7 0.3 1.6 1 2.1 1.1-0.9-0.6-2.7-1.5-3.3-1.8 7.5 3.4 14.2 9.1 18.5 16.4 0.4 0.7 1 2.3 1.5 2.5-0.1-0.5-0.5-0.8-0.9-1.6 0.2 0 0.2-0.3 0-0.6-0.4-0.5 0 0.4-0.4-0.1-1.8-3.3-4-6.2-7.4-9.4 1.9 1.8 0.5 0.5 0.1-0.1 2.6 2.3 5.6 6.2 6.9 8.2-0.2-0.3-0.3-0.5-0.2-0.5 2.4 4.1 3.9 7.8 5.4 13.1 0.1 0.1 0-0.4 0.2-0.1 1 4.2 1.3 7.7 1.2 10.9 0.8-5.4-1-13.8-4.2-20.4-0.4-0.8-0.4-0.2-0.8-1.1 0-0.3-0.3-0.9-0.5-1.3-4-6.6-8.9-11.3-14.7-15 0.4 0.2 1.2 0.8 1.2 0.7-10.8-7.1-23.3-8.1-33.6-5.9-0.7 0.3-1 0.6-1.8 1 1.5-0.5 2.4-0.6 3.8-0.9 0.3-0.3-1.3 0.1-0.6-0.2 0.1 0.1 1.4-0.2 1.7-0.1 0 0.1-0.4 0.2-0.5 0.3 3.3-0.7 6.7-0.8 9.6-0.6-1.7 0.1-4.8-0.2-5.8 0.3 1-0.1 2.4-0.2 3.3-0.1-1.2 0-3.4 0.1-4.4 0.2-0.1-0.1 1.6-0.3 0.5-0.3-0.5 0.1-1.3 0.1-1.6 0.4-8.6 0.8-17 5.3-22.9 10.6-1.2 1-2.6 2.1-3.5 3.2-2.2 2.5-3.6 5-5.2 7.2 1-2.1 3.2-5.3 5.8-8 2.6-2.7 5.4-5 6.9-6.2 0 0.4 2.4-1.5 3.3-2.1-0.6 0.5 0.4-0.2 0.6-0.1 3.2-1.9 5.8-2.6 8.7-3.7-0.7 0.2-1.3 0.4-1.4 0.3 0.7-0.2 1.1-0.4 1-0.5-2.8 0.8-7.2 2.7-10.7 4.8 6.3-4.3 14.3-6.9 22.2-7 7.9-0.2 15.6 1.8 21.7 5 4.1 1.8 8 5.1 11.1 8.3 0.9 0.8 0.2-0.2 1.5 1.2-0.4-0.2-0.7-0.4-0.2 0.2 0.8 0.9-0.2-0.7 1.1 0.9-0.1 0-0.5-0.5-0.5-0.3 3.5 3.1 6.2 8.7 7.8 12.4-0.4-1.5-1.4-3.6-2.2-5.1 2.4 4.4 3.2 7 4.2 10.9 0.4 0.3-0.2-1.4 0.2-0.6 0.1 0.6 0.2 2.5 0.6 2.8-0.3-1.9-0.8-4.2-1.2-4.6 0.3 0.2-0.5-2.3-1-2.9-0.2-1.6-1.6-4.4-2.8-6.5-4.3-8.4-12-15.3-20.6-19.1 0-0.2-0.5-0.4-0.7-0.6-8.5-3.6-18.7-4.6-28.5-2.3-9.9 2.4-19.2 8.1-25.8 16.3 0.3-1 2.8-2.9 2.9-3.7-2.9 3.1-6 7.2-8.1 11.6-2.2 4.4-3.4 8.9-3.9 12.2" fill="url(#6a272603-af63-49c0-8a5c-e922e9c8afba)" fill-rule="nonzero" stroke="none" stroke-width="1" stroke-linecap="butt" stroke-linejoin="miter" stroke-miterlimit="10" stroke-dasharray="" stroke-dashoffset="0" font-family="none" font-weight="none" font-size="none" text-anchor="none" style="mix-blend-mode: normal" data-fill-palette-color="tertiary"></path></g><g transform="matrix(1,0,0,1,48,124.60297205730659)"><svg viewBox="0 0 224 110.79405588538683" height="110.79405588538683" width="224"><g><svg viewBox="0 0 224 110.79405588538683" height="110.79405588538683" width="224"><g><svg viewBox="0 0 224 110.79405588538683" height="110.79405588538683" width="224"><g transform="matrix(1,0,0,1,0,66.96597565616047)"><svg viewBox="0 0 224 43.82808022922636" height="43.82808022922636" width="224"><g id="textblocktransform"><svg viewBox="0 0 224 43.82808022922636" height="43.82808022922636" width="224" id="textblock"><g><svg viewBox="0 0 224 43.82808022922636" height="43.82808022922636" width="224"><g transform="matrix(1,0,0,1,0,0)"><svg width="224" viewBox="3.64 -35.01 178.92000000000002 35.01" height="43.82808022922636" data-palette-color="#ffffff"><path d="M38.62-8.91L38.62-7.69Q38.62-6.52 38.22-5.18 37.82-3.83 36.9-2.69 35.99-1.54 34.52-0.77 33.06 0 30.93 0L30.93 0 6.84 0Q6.15 0 5.57-0.24 4.98-0.49 4.55-0.92 4.13-1.34 3.88-1.93 3.64-2.51 3.64-3.2L3.64-3.2 3.64-31.81Q3.64-32.47 3.88-33.06 4.13-33.64 4.55-34.08 4.98-34.52 5.57-34.77 6.15-35.01 6.84-35.01L6.84-35.01 28.08-35.01Q29.25-35.01 30.59-34.59 31.93-34.18 33.09-33.26 34.25-32.35 35.02-30.88 35.79-29.42 35.79-27.29L35.79-27.29 35.79-26.1Q35.79-24.41 35.23-22.47 34.67-20.53 33.42-18.8L33.42-18.8Q34.5-18.14 35.44-17.21 36.38-16.28 37.08-15.06 37.79-13.84 38.21-12.3 38.62-10.77 38.62-8.91L38.62-8.91ZM32.28-7.74L32.28-8.91Q32.28-10.16 31.88-11.15 31.49-12.13 30.79-12.84 30.08-13.55 29.08-13.93 28.08-14.31 26.83-14.31L26.83-14.31 12.52-14.31 12.52-20.7 23.97-20.7Q25.22-20.7 26.22-21.08 27.22-21.46 27.93-22.17 28.64-22.88 29.02-23.86 29.39-24.85 29.39-26.1L29.39-26.1 29.39-27.29Q29.39-28.66 28.08-28.66L28.08-28.66 9.99-28.66 9.99-6.35 30.93-6.35Q31.1-6.35 31.35-6.37 31.59-6.4 31.79-6.52 31.98-6.64 32.13-6.93 32.28-7.23 32.28-7.74L32.28-7.74ZM66.18-20.36L66.18-14.65 43.28-14.65 43.28-20.36 66.18-20.36ZM107.64-8.91L107.64-7.69Q107.64-6.52 107.23-5.18 106.83-3.83 105.92-2.69 105-1.54 103.54-0.77 102.07 0 99.95 0L99.95 0 75.85 0Q75.17 0 74.58-0.24 73.99-0.49 73.57-0.92 73.14-1.34 72.9-1.93 72.65-2.51 72.65-3.2L72.65-3.2 72.65-31.81Q72.65-32.47 72.9-33.06 73.14-33.64 73.57-34.08 73.99-34.52 74.58-34.77 75.17-35.01 75.85-35.01L75.85-35.01 97.09-35.01Q98.26-35.01 99.6-34.59 100.95-34.18 102.11-33.26 103.27-32.35 104.04-30.88 104.8-29.42 104.8-27.29L104.8-27.29 104.8-26.1Q104.8-24.41 104.24-22.47 103.68-20.53 102.44-18.8L102.44-18.8Q103.51-18.14 104.45-17.21 105.39-16.28 106.1-15.06 106.81-13.84 107.22-12.3 107.64-10.77 107.64-8.91L107.64-8.91ZM101.29-7.74L101.29-8.91Q101.29-10.16 100.9-11.15 100.51-12.13 99.8-12.84 99.09-13.55 98.09-13.93 97.09-14.31 95.84-14.31L95.84-14.31 81.54-14.31 81.54-20.7 92.99-20.7Q94.23-20.7 95.23-21.08 96.24-21.46 96.94-22.17 97.65-22.88 98.03-23.86 98.41-24.85 98.41-26.1L98.41-26.1 98.41-27.29Q98.41-28.66 97.09-28.66L97.09-28.66 79-28.66 79-6.35 99.95-6.35Q100.12-6.35 100.36-6.37 100.61-6.4 100.8-6.52 101-6.64 101.14-6.93 101.29-7.23 101.29-7.74L101.29-7.74ZM141.94-20.7L141.94-14.31 121.89-14.31 121.89-20.7 141.94-20.7ZM144.79-6.35L144.79 0 121.89 0Q120.57 0 119.01-0.46 117.45-0.93 116.12-1.99 114.79-3.05 113.9-4.75 113.01-6.45 113.01-8.91L113.01-8.91 113.01-31.81Q113.01-32.47 113.25-33.06 113.49-33.64 113.92-34.08 114.35-34.52 114.93-34.77 115.52-35.01 116.2-35.01L116.2-35.01 144.79-35.01 144.79-28.66 119.35-28.66 119.35-8.91Q119.35-7.67 120.01-7.01 120.67-6.35 121.94-6.35L121.94-6.35 144.79-6.35ZM182.56-35.01L182.56-28.66 168.57-28.66 168.57 0 162.22 0 162.22-28.66 148.21-28.66 148.21-35.01 182.56-35.01Z" opacity="1" transform="matrix(1,0,0,1,0,0)" fill="#ffffff" class="wordmark-text-0" data-fill-palette-color="primary" id="text-0"></path></svg></g></svg></g></svg></g></svg></g><g transform="matrix(1,0,0,1,67.73632937972023,0)"><svg viewBox="0 0 88.52734124055954 60.570406876790834" height="60.570406876790834" width="88.52734124055954"><g><svg version="1.1" xmlns="http://www.w3.org/2000/svg" xmlns:xlink="http://www.w3.org/1999/xlink" x="0" y="0" viewBox="0 0 100 68.42" enable-background="new 0 0 100 68.42" xml:space="preserve" width="88.52734124055954" height="60.570406876790834" class="icon-icon-0" data-fill-palette-color="accent" id="icon-0"></svg></g></svg></g><g></g></svg></g></svg></g></svg></g></svg></g><defs></defs><mask id="071373e8-8a9e-4521-a5a9-f3e00d0ea1a1"><g id="SvgjsG1004"><svg viewBox="0 0 320 360" height="360" width="320"><g><svg></svg></g><g><svg viewBox="0 0 320 360" height="360" width="320"><g></g><g transform="matrix(1,0,0,1,48,124.60297205730659)"><svg viewBox="0 0 224 110.79405588538683" height="110.79405588538683" width="224"><g><svg viewBox="0 0 224 110.79405588538683" height="110.79405588538683" width="224"><g><svg viewBox="0 0 224 110.79405588538683" height="110.79405588538683" width="224"><g transform="matrix(1,0,0,1,0,66.96597565616047)"><svg viewBox="0 0 224 43.82808022922636" height="43.82808022922636" width="224"><g id="SvgjsG1003"><svg viewBox="0 0 224 43.82808022922636" height="43.82808022922636" width="224" id="SvgjsSvg1002"><g><svg viewBox="0 0 224 43.82808022922636" height="43.82808022922636" width="224"><g transform="matrix(1,0,0,1,0,0)"><svg width="224" viewBox="3.64 -35.01 178.92000000000002 35.01" height="43.82808022922636" data-palette-color="#ffffff"></svg></g></svg></g></svg></g></svg></g><g transform="matrix(1,0,0,1,67.73632937972023,0)"><svg viewBox="0 0 88.52734124055954 60.570406876790834" height="60.570406876790834" width="88.52734124055954"><g><svg version="1.1" xmlns="http://www.w3.org/2000/svg" xmlns:xlink="http://www.w3.org/1999/xlink" x="0" y="0" viewBox="0 0 100 68.42" enable-background="new 0 0 100 68.42" xml:space="preserve" width="88.52734124055954" height="60.570406876790834" class="icon-icon-0" data-fill-palette-color="accent" id="SvgjsSvg1000"><path d="M50 0C15.789 0 0 34.21 0 34.21s15.789 34.21 50 34.21c34.211 0 50-34.21 50-34.21S84.21 0 50 0zM34.21 26.316c1.458 0 2.632 1.174 2.632 2.631v2.632h10.526v-2.632c0-1.457 1.174-2.631 2.632-2.631s2.632 1.174 2.632 2.631v2.632h10.525v-2.632c0-1.457 1.174-2.631 2.632-2.631s2.633 1.174 2.633 2.631v2.632h7.895c1.457 0 2.63 1.174 2.63 2.632s-1.173 2.631-2.63 2.631h-7.895v2.632c0 1.458-1.175 2.632-2.633 2.632s-2.632-1.174-2.632-2.632v-2.632H52.631v2.632c0 1.458-1.174 2.632-2.632 2.632s-2.632-1.174-2.632-2.632v-2.632H36.842v2.632c0 1.458-1.174 2.632-2.632 2.632s-2.631-1.174-2.631-2.632v-2.632h-7.895c-1.458 0-2.631-1.173-2.631-2.631s1.173-2.632 2.631-2.632h7.895v-2.632C31.579 27.49 32.752 26.316 34.21 26.316z" fill="white"></path></svg></g></svg></g><g></g></svg></g></svg></g></svg></g></svg></g><defs><mask></mask></defs></svg></g></mask><linearGradient x1="0.054" x2="0.941" y1="0.5" y2="0.5" id="ea6b3016-1557-4666-a722-8038a13f049d"><stop stop-color="#0f3054" offset="0"></stop><stop stop-color="#3b8dcb" offset="0.498"></stop><stop stop-color="#0f3054" offset="1"></stop></linearGradient><rect width="320.000005" height="360" fill="url(#ea6b3016-1557-4666-a722-8038a13f049d)" mask="url(#071373e8-8a9e-4521-a5a9-f3e00d0ea1a1)" data-fill-palette-color="accent"></rect><mask id="07f5646b-3422-4e97-a4fc-1f69e56628a2"><g id="SvgjsG1013"><svg viewBox="0 0 320 360" height="360" width="320"><g><svg></svg></g><g><svg viewBox="0 0 320 360" height="360" width="320"><g><path transform="translate(-19.44751,3.1739) scale(3.53591,3.53591)" d="M67.6 10.7c0.2 0 1.8 0.8 2.7 1.1-0.3 0.1-1-0.2-1.8-0.5 0.2 0 0.6 0.1 1 0.3-0.2-0.2-1.7-0.7-1.9-0.9M52.7 7.6c0.3-0.1 3.8 0.4 5.4 0.5 0.1-0.1-0.2-0.1-0.6-0.2 0.5-0.1 1.5 0.2 2.2 0.3-2.1 0.1-4.4-0.5-6.4-0.3-0.7 0-0.2-0.2-0.6-0.3M49.8 7.6c1.8 0 3.2 0 0.6 0.2-0.3-0.1-0.7-0.1-0.6-0.2M78.1 15.9c0.2 0 1 0.9 1.4 1.2-0.1 0.1-0.9-0.7-1.3-1 0.1 0.1 0 0-0.1-0.2M76.1 14.6c-0.8-0.7-1.1-0.7-1.2-1.1 0.7 0.4 1.2 0.8 1.2 1.1M63.2 8.3c0.1-0.1 0.3 0.1 0.8 0.2-0.6-0.1-0.5 0-0.3 0.2-0.7-0.1-0.9-0.2-0.7-0.4 0.4 0.2 0.5 0.1 0.2 0M34.8 9.5c0-0.1 0.4-0.3 0.7-0.4-0.3 0.2-0.2 0.3 0.3 0.1 0 0.1-0.6 0.3-1 0.5 0.2-0.1 0.4-0.4 0-0.2M65.2 7.3c-0.3 0.1-1.4-0.5-2.5-0.7-0.6-0.2 2.4 0.5 2.5 0.7M6.2 56.7c0.6 2.5 0.2 2.4 0 0M6.3 41.7c0.1-0.4 0.2-1.5 0.3-1.4-0.3 2.4-0.8 3.5-0.9 5.3 0.3-1.6-0.1 0.9-0.2 1.5 0.1 0.8 0.1-0.5 0.3-0.3 0.2 0.3-0.4 4.5-0.2 2.2-0.2 2.1 0 4.4 0.4 5-0.5 3.2 2 10.4 2.5 11.9 0.1 0.1 0-0.5 0.2-0.1 0.2 1.3 1.1 2.2 1.4 3.6 0.3 0.4 1.5 2.6 1.7 3.1 0.4 0.8 0.6 0.7 1 1.5 1.2 2.3 3.1 4.5 4.9 6.6 5.8 6.8 14.7 12.4 24.6 14.4 9.9 2.1 20.3 0.6 28.4-3.3 0.5-0.3 0.4-0.4 1-0.6 2.8-0.9 6.2-3.8 8.1-4.9 0.9-1 3.3-2.7 3.6-3.7 1.7-1.4 3.4-3.7 4.3-5.2 0.5-0.8 0.9-0.8 1.1-1.3-0.1 0 1.6-2.1 2.1-3.3-0.2 0-0.5 0.6-0.5 0 3.6-6.9 5.6-16.2 4.5-22.6 0.2 7.9-1.8 16.7-5.6 22.3-1.7 3.6-5.2 7.5-8.4 10.3-0.5 0.5-1 1.1-1.6 1.5-1.9 1.6-4 2.9-6.2 4.1-5.2 2.9-11 5.4-17.8 5.5 11.7-1 22.2-6.9 28-14.1-4.4 4.3-6.3 6-11.2 8.5-0.4 0.7-3.7 2.1-5.9 2.7 1.3-0.6 4-1.6 4.9-2.4-7.3 3.5-15.4 5.5-23 4.4 2.9 0 7 0.1 10.9-0.6 0.6-0.2 0.9-0.4 1.6-0.5 7.6-1.7 14.9-5.4 20.1-10.6-3 2.7-7.5 5.9-10.4 6.9 2.7-1.5 7.6-4.4 9.2-6.6-3.2 3.2-9.2 6.4-13 7.8-0.6 0.1 0.4-0.4-0.6 0-1.2 0.3-0.7 0.3-1 0.5-4.6 1.3-9.9 2.4-14.3 2-0.8-0.1-1.1-0.3-1.8-0.3-0.8-0.1-1.5-0.1-2.4-0.1-3.5-0.4-7.3-1.8-10.1-3-1.5-0.7-3-1.2-4.5-2.1-1.2-0.7-2.2-1.5-3.2-2.3-3.8-2.8-7-5.6-10-9.6-5.4-7.5-8.2-16.9-7.8-26.2 0.4-9.3 4.1-18.4 10-25.1-0.3 0.3 0.4-0.7 1-1.3 0 0.2-0.1 0.5 0.6-0.2 0.6-0.7-0.2-0.2 0.1-0.6 6.2-6.8 17-12.3 28.1-12.5 0.4-0.3 1.1-0.7 1.9-0.5 0 0.1-0.5 0.1-0.5 0.1 1.1-0.1 2.1-0.1 2.6 0.1 0.1-0.1-0.4-0.2 0-0.2 0.7 0.2 0.9 0 1.3 0.2-0.3 0-0.6 0-0.8 0.1 2.5 0 4.1 0.6 6.6 0.8-1.3-0.3-1.6-0.3-2.6-0.6 1.1 0.2 1.6 0.4 2.1 0.3-0.2 0-0.1-0.3 0.1-0.2 2 0.5 2.2 0.7 4.3 1.4 0.2-0.2-0.9-0.3-1.2-0.6 2 0.7 3.8 1.2 5 2-0.4-0.3-1.6-0.7-2.5-1.1-0.1 0.1 0.3 0.2 0.4 0.4-1-0.5-2.4-1-3.8-1.2 1.2 0.3 2 0.7 2.5 0.9-1.1-0.2-2.5-0.9-4.1-1.2 2.6 0.8 7.5 2.6 10.5 4.2-1.1-0.7-2.4-1.2-3.1-1.6 0.6 0.1 1.3 0.5 1.3 0.3 0.7 0.3 1.6 1 2.1 1.1-0.9-0.6-2.7-1.5-3.3-1.8 7.5 3.4 14.2 9.1 18.5 16.4 0.4 0.7 1 2.3 1.5 2.5-0.1-0.5-0.5-0.8-0.9-1.6 0.2 0 0.2-0.3 0-0.6-0.4-0.5 0 0.4-0.4-0.1-1.8-3.3-4-6.2-7.4-9.4 1.9 1.8 0.5 0.5 0.1-0.1 2.6 2.3 5.6 6.2 6.9 8.2-0.2-0.3-0.3-0.5-0.2-0.5 2.4 4.1 3.9 7.8 5.4 13.1 0.1 0.1 0-0.4 0.2-0.1 1 4.2 1.3 7.7 1.2 10.9 0.8-5.4-1-13.8-4.2-20.4-0.4-0.8-0.4-0.2-0.8-1.1 0-0.3-0.3-0.9-0.5-1.3-4-6.6-8.9-11.3-14.7-15 0.4 0.2 1.2 0.8 1.2 0.7-10.8-7.1-23.3-8.1-33.6-5.9-0.7 0.3-1 0.6-1.8 1 1.5-0.5 2.4-0.6 3.8-0.9 0.3-0.3-1.3 0.1-0.6-0.2 0.1 0.1 1.4-0.2 1.7-0.1 0 0.1-0.4 0.2-0.5 0.3 3.3-0.7 6.7-0.8 9.6-0.6-1.7 0.1-4.8-0.2-5.8 0.3 1-0.1 2.4-0.2 3.3-0.1-1.2 0-3.4 0.1-4.4 0.2-0.1-0.1 1.6-0.3 0.5-0.3-0.5 0.1-1.3 0.1-1.6 0.4-8.6 0.8-17 5.3-22.9 10.6-1.2 1-2.6 2.1-3.5 3.2-2.2 2.5-3.6 5-5.2 7.2 1-2.1 3.2-5.3 5.8-8 2.6-2.7 5.4-5 6.9-6.2 0 0.4 2.4-1.5 3.3-2.1-0.6 0.5 0.4-0.2 0.6-0.1 3.2-1.9 5.8-2.6 8.7-3.7-0.7 0.2-1.3 0.4-1.4 0.3 0.7-0.2 1.1-0.4 1-0.5-2.8 0.8-7.2 2.7-10.7 4.8 6.3-4.3 14.3-6.9 22.2-7 7.9-0.2 15.6 1.8 21.7 5 4.1 1.8 8 5.1 11.1 8.3 0.9 0.8 0.2-0.2 1.5 1.2-0.4-0.2-0.7-0.4-0.2 0.2 0.8 0.9-0.2-0.7 1.1 0.9-0.1 0-0.5-0.5-0.5-0.3 3.5 3.1 6.2 8.7 7.8 12.4-0.4-1.5-1.4-3.6-2.2-5.1 2.4 4.4 3.2 7 4.2 10.9 0.4 0.3-0.2-1.4 0.2-0.6 0.1 0.6 0.2 2.5 0.6 2.8-0.3-1.9-0.8-4.2-1.2-4.6 0.3 0.2-0.5-2.3-1-2.9-0.2-1.6-1.6-4.4-2.8-6.5-4.3-8.4-12-15.3-20.6-19.1 0-0.2-0.5-0.4-0.7-0.6-8.5-3.6-18.7-4.6-28.5-2.3-9.9 2.4-19.2 8.1-25.8 16.3 0.3-1 2.8-2.9 2.9-3.7-2.9 3.1-6 7.2-8.1 11.6-2.2 4.4-3.4 8.9-3.9 12.2" fill="white" fill-rule="nonzero" stroke="none" stroke-width="1" stroke-linecap="butt" stroke-linejoin="miter" stroke-miterlimit="10" stroke-dasharray="" stroke-dashoffset="0" font-family="none" font-weight="none" font-size="none" text-anchor="none" style="mix-blend-mode: normal"></path></g><g transform="matrix(1,0,0,1,48,124.60297205730659)"><svg viewBox="0 0 224 110.79405588538683" height="110.79405588538683" width="224"><g><svg viewBox="0 0 224 110.79405588538683" height="110.79405588538683" width="224"><g><svg viewBox="0 0 224 110.79405588538683" height="110.79405588538683" width="224"><g transform="matrix(1,0,0,1,0,66.96597565616047)"><svg viewBox="0 0 224 43.82808022922636" height="43.82808022922636" width="224"><g id="SvgjsG1012"><svg viewBox="0 0 224 43.82808022922636" height="43.82808022922636" width="224" id="SvgjsSvg1011"><g><svg viewBox="0 0 224 43.82808022922636" height="43.82808022922636" width="224"><g transform="matrix(1,0,0,1,0,0)"><svg width="224" viewBox="3.64 -35.01 178.92000000000002 35.01" height="43.82808022922636" data-palette-color="#ffffff"></svg></g></svg></g></svg></g></svg></g><g transform="matrix(1,0,0,1,67.73632937972023,0)"><svg viewBox="0 0 88.52734124055954 60.570406876790834" height="60.570406876790834" width="88.52734124055954"><g><svg version="1.1" xmlns="http://www.w3.org/2000/svg" xmlns:xlink="http://www.w3.org/1999/xlink" x="0" y="0" viewBox="0 0 100 68.42" enable-background="new 0 0 100 68.42" xml:space="preserve" width="88.52734124055954" height="60.570406876790834" class="icon-icon-0" data-fill-palette-color="accent" id="SvgjsSvg1009"></svg></g></svg></g><g></g></svg></g></svg></g></svg></g></svg></g><defs><mask></mask></defs><mask><g id="SvgjsG1008"><svg viewBox="0 0 320 360" height="360" width="320"><g><svg></svg></g><g><svg viewBox="0 0 320 360" height="360" width="320"><g></g><g transform="matrix(1,0,0,1,48,124.60297205730659)"><svg viewBox="0 0 224 110.79405588538683" height="110.79405588538683" width="224"><g><svg viewBox="0 0 224 110.79405588538683" height="110.79405588538683" width="224"><g><svg viewBox="0 0 224 110.79405588538683" height="110.79405588538683" width="224"><g transform="matrix(1,0,0,1,0,66.96597565616047)"><svg viewBox="0 0 224 43.82808022922636" height="43.82808022922636" width="224"><g id="SvgjsG1007"><svg viewBox="0 0 224 43.82808022922636" height="43.82808022922636" width="224" id="SvgjsSvg1006"><g><svg viewBox="0 0 224 43.82808022922636" height="43.82808022922636" width="224"><g transform="matrix(1,0,0,1,0,0)"><svg width="224" viewBox="3.64 -35.01 178.92000000000002 35.01" height="43.82808022922636" data-palette-color="#ffffff"></svg></g></svg></g></svg></g></svg></g><g transform="matrix(1,0,0,1,67.73632937972023,0)"><svg viewBox="0 0 88.52734124055954 60.570406876790834" height="60.570406876790834" width="88.52734124055954"><g><svg version="1.1" xmlns="http://www.w3.org/2000/svg" xmlns:xlink="http://www.w3.org/1999/xlink" x="0" y="0" viewBox="0 0 100 68.42" enable-background="new 0 0 100 68.42" xml:space="preserve" width="88.52734124055954" height="60.570406876790834" class="icon-icon-0" data-fill-palette-color="accent" id="SvgjsSvg1005"></svg></g></svg></g><g></g></svg></g></svg></g></svg></g></svg></g><defs><mask></mask></defs></svg></g></mask></svg></g></mask><linearGradient x1="0.054" x2="0.941" y1="0.5" y2="0.5" id="6a272603-af63-49c0-8a5c-e922e9c8afba"><stop stop-color="#0f3054" offset="0"></stop><stop stop-color="#3b8dcb" offset="0.498"></stop><stop stop-color="#0f3054" offset="1"></stop></linearGradient></svg><rect width="320" height="360" fill="none" stroke="none" visibility="hidden"></rect></g></svg></g></svg>